<mxfile host="app.diagrams.net" modified="2023-08-26T13:40:12.810Z" agent="Mozilla/5.0 (X11; Linux x86_64; rv:109.0) Gecko/20100101 Firefox/116.0" etag="20K4pTyFOQNL1_qZvAhv" version="21.6.9" type="device">
  <diagram name="Page-1" id="bKJ9M7TFCG-FmAOeaJfg">
    <mxGraphModel dx="782" dy="551" grid="1" gridSize="10" guides="1" tooltips="1" connect="1" arrows="1" fold="1" page="1" pageScale="1" pageWidth="850" pageHeight="1100" math="0" shadow="0">
      <root>
        <mxCell id="0" />
        <mxCell id="1" parent="0" />
        <mxCell id="PrT4Ly5hu28b8KY8F8GB-10" style="edgeStyle=orthogonalEdgeStyle;rounded=0;orthogonalLoop=1;jettySize=auto;html=1;exitX=0.5;exitY=1;exitDx=0;exitDy=0;entryX=0.5;entryY=0;entryDx=0;entryDy=0;" parent="1" source="PrT4Ly5hu28b8KY8F8GB-1" target="PrT4Ly5hu28b8KY8F8GB-7" edge="1">
          <mxGeometry relative="1" as="geometry" />
        </mxCell>
        <mxCell id="PrT4Ly5hu28b8KY8F8GB-1" value="Input" style="rounded=1;whiteSpace=wrap;html=1;fillColor=#d5e8d4;strokeColor=#82b366;" parent="1" vertex="1">
          <mxGeometry x="210" y="130" width="120" height="60" as="geometry" />
        </mxCell>
        <mxCell id="PrT4Ly5hu28b8KY8F8GB-3" value="Attention Down" style="shape=process;whiteSpace=wrap;html=1;backgroundOutline=1;" parent="1" vertex="1">
          <mxGeometry x="210" y="30" width="120" height="60" as="geometry" />
        </mxCell>
        <mxCell id="PrT4Ly5hu28b8KY8F8GB-5" value="Attention Up" style="shape=process;whiteSpace=wrap;html=1;backgroundOutline=1;" parent="1" vertex="1">
          <mxGeometry x="560" y="30" width="120" height="60" as="geometry" />
        </mxCell>
        <mxCell id="PrT4Ly5hu28b8KY8F8GB-31" style="edgeStyle=orthogonalEdgeStyle;rounded=0;orthogonalLoop=1;jettySize=auto;html=1;exitX=0.5;exitY=1;exitDx=0;exitDy=0;entryX=0.5;entryY=0;entryDx=0;entryDy=0;" parent="1" source="PrT4Ly5hu28b8KY8F8GB-6" target="PrT4Ly5hu28b8KY8F8GB-27" edge="1">
          <mxGeometry relative="1" as="geometry">
            <Array as="points">
              <mxPoint x="700" y="200" />
              <mxPoint x="620" y="200" />
            </Array>
          </mxGeometry>
        </mxCell>
        <mxCell id="PrT4Ly5hu28b8KY8F8GB-6" value="Input" style="rounded=1;whiteSpace=wrap;html=1;fillColor=#d5e8d4;strokeColor=#82b366;" parent="1" vertex="1">
          <mxGeometry x="640" y="130" width="120" height="60" as="geometry" />
        </mxCell>
        <mxCell id="PrT4Ly5hu28b8KY8F8GB-11" style="edgeStyle=orthogonalEdgeStyle;rounded=0;orthogonalLoop=1;jettySize=auto;html=1;exitX=0.5;exitY=1;exitDx=0;exitDy=0;entryX=0.5;entryY=0;entryDx=0;entryDy=0;" parent="1" source="PrT4Ly5hu28b8KY8F8GB-7" target="PrT4Ly5hu28b8KY8F8GB-8" edge="1">
          <mxGeometry relative="1" as="geometry" />
        </mxCell>
        <mxCell id="PrT4Ly5hu28b8KY8F8GB-7" value="Resnet block" style="rounded=1;whiteSpace=wrap;html=1;fillColor=#ffcd28;strokeColor=#d79b00;gradientColor=#ffa500;" parent="1" vertex="1">
          <mxGeometry x="210" y="220" width="120" height="60" as="geometry" />
        </mxCell>
        <mxCell id="0G90Ox9cGvnh5QgGsF_X-3" style="edgeStyle=orthogonalEdgeStyle;rounded=0;orthogonalLoop=1;jettySize=auto;html=1;exitX=0.5;exitY=1;exitDx=0;exitDy=0;entryX=0.5;entryY=0;entryDx=0;entryDy=0;" edge="1" parent="1" source="PrT4Ly5hu28b8KY8F8GB-8" target="0G90Ox9cGvnh5QgGsF_X-1">
          <mxGeometry relative="1" as="geometry" />
        </mxCell>
        <mxCell id="0G90Ox9cGvnh5QgGsF_X-6" style="edgeStyle=orthogonalEdgeStyle;rounded=0;orthogonalLoop=1;jettySize=auto;html=1;exitX=0.5;exitY=1;exitDx=0;exitDy=0;entryX=0.5;entryY=0;entryDx=0;entryDy=0;" edge="1" parent="1" source="PrT4Ly5hu28b8KY8F8GB-8" target="PrT4Ly5hu28b8KY8F8GB-14">
          <mxGeometry relative="1" as="geometry">
            <Array as="points">
              <mxPoint x="270" y="390" />
              <mxPoint x="190" y="390" />
            </Array>
          </mxGeometry>
        </mxCell>
        <mxCell id="PrT4Ly5hu28b8KY8F8GB-8" value="&lt;div&gt;Attention block&lt;/div&gt;" style="rounded=1;whiteSpace=wrap;html=1;fillColor=#ffcd28;strokeColor=#d79b00;gradientColor=#ffa500;" parent="1" vertex="1">
          <mxGeometry x="210" y="310" width="120" height="60" as="geometry" />
        </mxCell>
        <mxCell id="PrT4Ly5hu28b8KY8F8GB-17" style="edgeStyle=orthogonalEdgeStyle;rounded=0;orthogonalLoop=1;jettySize=auto;html=1;exitX=0.5;exitY=1;exitDx=0;exitDy=0;entryX=0.5;entryY=0;entryDx=0;entryDy=0;" parent="1" source="PrT4Ly5hu28b8KY8F8GB-9" edge="1">
          <mxGeometry relative="1" as="geometry">
            <mxPoint x="190" y="720" as="targetPoint" />
          </mxGeometry>
        </mxCell>
        <mxCell id="PrT4Ly5hu28b8KY8F8GB-18" style="edgeStyle=orthogonalEdgeStyle;rounded=0;orthogonalLoop=1;jettySize=auto;html=1;exitX=0.5;exitY=1;exitDx=0;exitDy=0;entryX=0.5;entryY=0;entryDx=0;entryDy=0;" parent="1" source="PrT4Ly5hu28b8KY8F8GB-9" target="PrT4Ly5hu28b8KY8F8GB-13" edge="1">
          <mxGeometry relative="1" as="geometry" />
        </mxCell>
        <mxCell id="PrT4Ly5hu28b8KY8F8GB-9" value="Downsample" style="rounded=1;whiteSpace=wrap;html=1;fillColor=#ffcd28;strokeColor=#d79b00;gradientColor=#ffa500;" parent="1" vertex="1">
          <mxGeometry x="210" y="610" width="120" height="60" as="geometry" />
        </mxCell>
        <mxCell id="PrT4Ly5hu28b8KY8F8GB-13" value="Output" style="rounded=1;whiteSpace=wrap;html=1;fillColor=#dae8fc;strokeColor=#6c8ebf;" parent="1" vertex="1">
          <mxGeometry x="290" y="720" width="120" height="60" as="geometry" />
        </mxCell>
        <mxCell id="PrT4Ly5hu28b8KY8F8GB-14" value="Output states" style="rounded=1;whiteSpace=wrap;html=1;fillColor=#dae8fc;strokeColor=#6c8ebf;" parent="1" vertex="1">
          <mxGeometry x="130" y="720" width="120" height="60" as="geometry" />
        </mxCell>
        <mxCell id="0G90Ox9cGvnh5QgGsF_X-11" style="edgeStyle=orthogonalEdgeStyle;rounded=0;orthogonalLoop=1;jettySize=auto;html=1;exitX=0.5;exitY=1;exitDx=0;exitDy=0;entryX=0.5;entryY=0;entryDx=0;entryDy=0;" edge="1" parent="1" source="PrT4Ly5hu28b8KY8F8GB-27" target="0G90Ox9cGvnh5QgGsF_X-9">
          <mxGeometry relative="1" as="geometry" />
        </mxCell>
        <mxCell id="PrT4Ly5hu28b8KY8F8GB-27" value="Resnet block" style="rounded=1;whiteSpace=wrap;html=1;fillColor=#ffcd28;strokeColor=#d79b00;gradientColor=#ffa500;" parent="1" vertex="1">
          <mxGeometry x="560" y="220" width="120" height="60" as="geometry" />
        </mxCell>
        <mxCell id="PrT4Ly5hu28b8KY8F8GB-30" style="edgeStyle=orthogonalEdgeStyle;rounded=0;orthogonalLoop=1;jettySize=auto;html=1;exitX=0.5;exitY=1;exitDx=0;exitDy=0;entryX=0.5;entryY=0;entryDx=0;entryDy=0;" parent="1" source="PrT4Ly5hu28b8KY8F8GB-28" target="PrT4Ly5hu28b8KY8F8GB-27" edge="1">
          <mxGeometry relative="1" as="geometry">
            <Array as="points">
              <mxPoint x="540" y="200" />
              <mxPoint x="620" y="200" />
            </Array>
          </mxGeometry>
        </mxCell>
        <mxCell id="PrT4Ly5hu28b8KY8F8GB-32" style="edgeStyle=orthogonalEdgeStyle;rounded=0;orthogonalLoop=1;jettySize=auto;html=1;exitX=0.5;exitY=1;exitDx=0;exitDy=0;entryX=0.5;entryY=0;entryDx=0;entryDy=0;" parent="1" source="PrT4Ly5hu28b8KY8F8GB-28" target="PrT4Ly5hu28b8KY8F8GB-29" edge="1">
          <mxGeometry relative="1" as="geometry">
            <Array as="points">
              <mxPoint x="540" y="390" />
              <mxPoint x="620" y="390" />
            </Array>
          </mxGeometry>
        </mxCell>
        <mxCell id="PrT4Ly5hu28b8KY8F8GB-28" value="Input states" style="rounded=1;whiteSpace=wrap;html=1;fillColor=#d5e8d4;strokeColor=#82b366;" parent="1" vertex="1">
          <mxGeometry x="480" y="130" width="120" height="60" as="geometry" />
        </mxCell>
        <mxCell id="0G90Ox9cGvnh5QgGsF_X-13" style="edgeStyle=orthogonalEdgeStyle;rounded=0;orthogonalLoop=1;jettySize=auto;html=1;exitX=0.5;exitY=1;exitDx=0;exitDy=0;entryX=0.5;entryY=0;entryDx=0;entryDy=0;" edge="1" parent="1" source="PrT4Ly5hu28b8KY8F8GB-29" target="0G90Ox9cGvnh5QgGsF_X-10">
          <mxGeometry relative="1" as="geometry" />
        </mxCell>
        <mxCell id="PrT4Ly5hu28b8KY8F8GB-29" value="Resnet block" style="rounded=1;whiteSpace=wrap;html=1;fillColor=#ffcd28;strokeColor=#d79b00;gradientColor=#ffa500;" parent="1" vertex="1">
          <mxGeometry x="560" y="410" width="120" height="60" as="geometry" />
        </mxCell>
        <mxCell id="PrT4Ly5hu28b8KY8F8GB-36" style="edgeStyle=orthogonalEdgeStyle;rounded=0;orthogonalLoop=1;jettySize=auto;html=1;exitX=0.5;exitY=1;exitDx=0;exitDy=0;entryX=0.5;entryY=0;entryDx=0;entryDy=0;" parent="1" source="PrT4Ly5hu28b8KY8F8GB-33" target="PrT4Ly5hu28b8KY8F8GB-35" edge="1">
          <mxGeometry relative="1" as="geometry" />
        </mxCell>
        <mxCell id="PrT4Ly5hu28b8KY8F8GB-33" value="Upsample" style="rounded=1;whiteSpace=wrap;html=1;fillColor=#ffcd28;strokeColor=#d79b00;gradientColor=#ffa500;" parent="1" vertex="1">
          <mxGeometry x="560" y="590" width="120" height="60" as="geometry" />
        </mxCell>
        <mxCell id="PrT4Ly5hu28b8KY8F8GB-35" value="Output" style="rounded=1;whiteSpace=wrap;html=1;fillColor=#dae8fc;strokeColor=#6c8ebf;" parent="1" vertex="1">
          <mxGeometry x="560" y="680" width="120" height="60" as="geometry" />
        </mxCell>
        <mxCell id="0G90Ox9cGvnh5QgGsF_X-4" style="edgeStyle=orthogonalEdgeStyle;rounded=0;orthogonalLoop=1;jettySize=auto;html=1;exitX=0.5;exitY=1;exitDx=0;exitDy=0;entryX=0.5;entryY=0;entryDx=0;entryDy=0;" edge="1" parent="1" source="0G90Ox9cGvnh5QgGsF_X-1" target="0G90Ox9cGvnh5QgGsF_X-2">
          <mxGeometry relative="1" as="geometry" />
        </mxCell>
        <mxCell id="0G90Ox9cGvnh5QgGsF_X-1" value="Resnet block" style="rounded=1;whiteSpace=wrap;html=1;fillColor=#ffcd28;strokeColor=#d79b00;gradientColor=#ffa500;" vertex="1" parent="1">
          <mxGeometry x="210" y="410" width="120" height="60" as="geometry" />
        </mxCell>
        <mxCell id="0G90Ox9cGvnh5QgGsF_X-7" style="edgeStyle=orthogonalEdgeStyle;rounded=0;orthogonalLoop=1;jettySize=auto;html=1;exitX=0.5;exitY=1;exitDx=0;exitDy=0;entryX=0.5;entryY=0;entryDx=0;entryDy=0;" edge="1" parent="1" source="0G90Ox9cGvnh5QgGsF_X-2" target="PrT4Ly5hu28b8KY8F8GB-9">
          <mxGeometry relative="1" as="geometry" />
        </mxCell>
        <mxCell id="0G90Ox9cGvnh5QgGsF_X-8" style="edgeStyle=orthogonalEdgeStyle;rounded=0;orthogonalLoop=1;jettySize=auto;html=1;exitX=0.5;exitY=1;exitDx=0;exitDy=0;entryX=0.5;entryY=0;entryDx=0;entryDy=0;" edge="1" parent="1" source="0G90Ox9cGvnh5QgGsF_X-2" target="PrT4Ly5hu28b8KY8F8GB-14">
          <mxGeometry relative="1" as="geometry">
            <Array as="points">
              <mxPoint x="270" y="580" />
              <mxPoint x="190" y="580" />
            </Array>
          </mxGeometry>
        </mxCell>
        <mxCell id="0G90Ox9cGvnh5QgGsF_X-2" value="Attention block" style="rounded=1;whiteSpace=wrap;html=1;fillColor=#ffcd28;strokeColor=#d79b00;gradientColor=#ffa500;" vertex="1" parent="1">
          <mxGeometry x="210" y="500" width="120" height="60" as="geometry" />
        </mxCell>
        <mxCell id="0G90Ox9cGvnh5QgGsF_X-12" style="edgeStyle=orthogonalEdgeStyle;rounded=0;orthogonalLoop=1;jettySize=auto;html=1;exitX=0.5;exitY=1;exitDx=0;exitDy=0;entryX=0.5;entryY=0;entryDx=0;entryDy=0;" edge="1" parent="1" source="0G90Ox9cGvnh5QgGsF_X-9" target="PrT4Ly5hu28b8KY8F8GB-29">
          <mxGeometry relative="1" as="geometry" />
        </mxCell>
        <mxCell id="0G90Ox9cGvnh5QgGsF_X-9" value="Attention block" style="rounded=1;whiteSpace=wrap;html=1;fillColor=#ffcd28;strokeColor=#d79b00;gradientColor=#ffa500;" vertex="1" parent="1">
          <mxGeometry x="560" y="310" width="120" height="60" as="geometry" />
        </mxCell>
        <mxCell id="0G90Ox9cGvnh5QgGsF_X-14" style="edgeStyle=orthogonalEdgeStyle;rounded=0;orthogonalLoop=1;jettySize=auto;html=1;exitX=0.5;exitY=1;exitDx=0;exitDy=0;entryX=0.5;entryY=0;entryDx=0;entryDy=0;" edge="1" parent="1" source="0G90Ox9cGvnh5QgGsF_X-10" target="PrT4Ly5hu28b8KY8F8GB-33">
          <mxGeometry relative="1" as="geometry" />
        </mxCell>
        <mxCell id="0G90Ox9cGvnh5QgGsF_X-10" value="Attention block" style="rounded=1;whiteSpace=wrap;html=1;fillColor=#ffcd28;strokeColor=#d79b00;gradientColor=#ffa500;" vertex="1" parent="1">
          <mxGeometry x="560" y="500" width="120" height="60" as="geometry" />
        </mxCell>
      </root>
    </mxGraphModel>
  </diagram>
</mxfile>
